<svg xmlns="http://www.w3.org/2000/svg" width="128.727" height="94.167" viewBox="0 0 128.727 94.167">
  <g id="OdtDm9" transform="translate(-66.137)">
    <g id="Group_85" data-name="Group 85" transform="translate(66.137 0)">
      <path id="Path_164" data-name="Path 164" d="M-545.724,599.23a9.811,9.811,0,0,1-.8,3.217q-3.273,9.888-6.6,19.756c-.993,2.961-1.763,3.363-4.7,2.406q-17.583-5.738-35.16-11.493a10.22,10.22,0,0,1-1.379-.506,2.092,2.092,0,0,1-1.3-2.786c.348-1.342.8-2.657,1.241-3.975q3.2-9.647,6.422-19.289a1.29,1.29,0,0,1,.706-.881,34.116,34.116,0,0,1,4.394,5.27c3.376,4.306,6.635,8.7,9.965,13.047,1.4,1.83,1.961,1.98,4.186,1.351q10.489-2.967,20.978-5.931A2.768,2.768,0,0,1-545.724,599.23Z" transform="translate(595.792 -530.904)" fill="#fff"/>
      <path id="Path_165" data-name="Path 165" d="M-435.28,605.393a2.259,2.259,0,0,1-.481,2.031c-2.779,4.9-5.558,9.806-8.378,14.685-.957,1.657-1.8,1.873-3.678.868-3.311-1.774-6.578-3.631-9.855-5.468-4.916-2.757-9.821-5.532-14.737-8.287-2.4-1.343-2.586-1.811-1.228-4.227,2.8-4.982,5.664-9.932,8.5-14.9a1.3,1.3,0,0,1,1.178-.822c1.1,2.2,2.26,4.5,3.4,6.817,1.478,3,2.965,6,4.392,9.029a2.664,2.664,0,0,0,2.962,1.636c4.47-.4,8.944-.757,13.41-1.2A34.022,34.022,0,0,1-435.28,605.393Z" transform="translate(534.006 -532.737)" fill="#fff"/>
      <path id="Path_166" data-name="Path 166" d="M-394.088,561.344a34.5,34.5,0,0,1,4.792,3.339q2.9,2.028,5.708,4.2a2.425,2.425,0,0,0,3.124.123c3.242-2.038,6.519-4.02,9.793-6.007.395-.24.745-.679,1.559-.41,0,2.321.174,4.743-.054,7.127-.187,1.952-.251,3.9-.33,5.849-.083,2.051-.3,2.377-2.249,2.317-4.15-.127-8.3.1-12.454-.4-2.577-.31-5.212-.108-7.82-.177-2.681-.071-2.994-.355-2.915-2.993.122-4.069.333-8.135.522-12.2A2.9,2.9,0,0,1-394.088,561.344Z" transform="translate(493.499 -518.51)" fill="#fff"/>
      <path id="Path_167" data-name="Path 167" d="M-535.974,596.191c-.609.764-1.588.759-2.411,1-6.029,1.752-12.076,3.434-18.116,5.147-2.232.633-2.222.636-3.651-1.228q-5.879-7.671-11.766-15.337c-.286-.375-.728-.681-.7-1.241.327-.059-.122.036.1-.2.054-.057.146-.146.195-.132,11.949,3.571,23.762,7.568,35.636,11.377C-536.382,595.667-536.071,595.788-535.974,596.191Z" transform="translate(583.989 -530.147)" fill="#fff"/>
      <path id="Path_168" data-name="Path 168" d="M-434.417,520.768c-.13,1.884-.211,3.246-.32,4.606-.182,2.275-.337,4.554-.588,6.822-.192,1.734-.659,2.147-2.4,1.99-5.607-.5-11.212-1.034-16.807-1.647-2.315-.254-2.337-.469-2.088-2.844.28-2.676.458-5.363.7-8.043a3.61,3.61,0,0,1,.614-2.522c1.843.823,3.125,2.461,4.735,3.623a34.066,34.066,0,0,1,3.382,2.822,2.309,2.309,0,0,0,3.091.333c2.332-1.347,4.7-2.642,7.06-3.931C-436.34,521.6-435.6,521.307-434.417,520.768Z" transform="translate(524.961 -497.01)" fill="#fff"/>
      <path id="Path_169" data-name="Path 169" d="M-533.754,537.7c3.6.833,6.571,2.215,9.657,3.236,2.047.677,2.038.725,3.524-.936,2.223-2.483,4.437-4.974,6.591-7.389.722.064.742.548.841.907.889,3.226,1.785,6.45,2.615,9.691.393,1.535.169,1.923-1.3,2.315q-8.163,2.178-16.349,4.275c-1.948.5-2.353.3-2.867-1.561C-531.97,544.873-533.044,541.542-533.754,537.7Z" transform="translate(564.195 -503.875)" fill="#fff"/>
      <path id="Path_170" data-name="Path 170" d="M-379.648,515c.885-3.845,2.139-7.613,3.416-11.6,1.778,1.259,2.706,3.012,4,4.411a34.281,34.281,0,0,1,2.582,3.259,2.191,2.191,0,0,0,2.914.906c2.683-.965,5.447-1.706,8.182-2.525a1.679,1.679,0,0,1,1.57-.064,44.6,44.6,0,0,1-1.928,7.146c-1.623,5.5-1.13,4.667-5.821,3.383-4.407-1.206-8.768-2.581-13.147-3.887A3.389,3.389,0,0,1-379.648,515Z" transform="translate(485.707 -488.998)" fill="#fff"/>
      <path id="Path_171" data-name="Path 171" d="M-449.115,588.347l25.5,14.267c-.1.74-.535.748-.928.78-5.2.422-10.4.82-15.594,1.269-.907.078-1.615-.044-2.044-.918q-3.7-7.536-7.4-15.07Z" transform="translate(521.328 -532.263)" fill="#fff"/>
      <path id="Path_172" data-name="Path 172" d="M-497.954,474.908a30.629,30.629,0,0,1,4.074,4.806c1.376,1.858,1.427,1.9,3.657,1.314,1.419-.372,2.82-.812,4.224-1.235a3.151,3.151,0,0,1,2.5-.171c-.749,2.5-1.486,4.972-2.237,7.444a1.219,1.219,0,0,1-1.672.961c-4.052-1.244-8.1-2.5-12.149-3.752-.956-.295-1.368-.919-1-1.86C-499.638,480.066-499.211,477.548-497.954,474.908Z" transform="translate(547.355 -474.487)" fill="#fff"/>
      <path id="Path_174" data-name="Path 174" d="M-368.309,560.772l-10.774,6.677a107.574,107.574,0,0,1-10.179-7.939c7.006.184,13.923.128,20.81.677Z" transform="translate(490.603 -517.577)" fill="#fff"/>
      <path id="Path_175" data-name="Path 175" d="M-451.2,517.244l17.814,1.65.113.6c-2.972,1.617-5.941,3.24-8.919,4.847a1.37,1.37,0,0,1-1.6-.232q-3.827-3.173-7.635-6.369Z" transform="translate(522.265 -496.05)" fill="#fff"/>
      <path id="Path_176" data-name="Path 176" d="M-531.143,535.574l17.188-4.605c-1.321,2.479-3.083,4.028-4.577,5.73-2.8,3.182-1.606,3.06-5.824,1.665-2.282-.754-4.536-1.589-6.8-2.388Z" transform="translate(562.874 -503.04)" fill="#fff"/>
      <path id="Path_177" data-name="Path 177" d="M-370.068,501.9l16.879,5.039a5.149,5.149,0,0,1-2.7,1.274c-1.93.658-3.895,1.216-5.842,1.825a1.783,1.783,0,0,1-2.205-.47C-365.84,507.159-367.768,504.77-370.068,501.9Z" transform="translate(480.828 -488.234)" fill="#fff"/>
      <path id="Path_179" data-name="Path 179" d="M-491.959,474.051l11.348,3.531.068.528a63.478,63.478,0,0,1-6.562,1.964c-.817.191-1.157-.509-1.54-.99-1.212-1.52-2.373-3.081-3.554-4.627Z" transform="translate(543.031 -474.051)" fill="#fff"/>
    </g>
  </g>
</svg>
