<svg id="Group_1288" data-name="Group 1288" xmlns="http://www.w3.org/2000/svg" xmlns:xlink="http://www.w3.org/1999/xlink" width="102.374" height="105.064" viewBox="0 0 102.374 105.064">
  <defs>
    <clipPath id="clip-path">
      <rect id="Rectangle_109" data-name="Rectangle 109" width="102.374" height="105.064" fill="#fff"/>
    </clipPath>
  </defs>
  <g id="Group_60" data-name="Group 60" clip-path="url(#clip-path)">
    <g id="Group_59" data-name="Group 59" transform="translate(7.39 5.4)">
      <path id="Path_98" data-name="Path 98" d="M145.9,371.161l20.028-59.486c-13.037-5.593-26.141-9.3-38.75-13.526-3.954,2.024-1.285,10.216-8.738,8.611a25.566,25.566,0,0,1,3.789-11.823c2.6-4.01,6.556-5.85,11.109-4.619A293.525,293.525,0,0,1,164.075,301c5.321,2.1,7.914,8.481,6.063,14.19q-10.261,31.659-20.932,63.179a10.537,10.537,0,0,1-13.812,6.922c-9.477-3.093-18.919-6.34-28.221-9.943-7.9-3.062-10.4-12.866-5.528-20.207a2.93,2.93,0,0,1,5.26.582c.473,1.085.874,1.95,1.922,2.322C120.886,362.329,132.953,366.587,145.9,371.161Z" transform="translate(-76.809 -289.94)" fill="#fff"/>
      <path id="Path_99" data-name="Path 99" d="M100,351.162c-4.97,0-9.94.069-14.909-.012-7.241-.118-10.122-3.206-9.144-10.648A207.042,207.042,0,0,1,79.8,320.149c1.378-5.866,5.712-9.31,11.594-9.393q16.5-.234,33.011-.006c5.977.081,8.964,3.391,8.173,9.456-.941,7.2-2.258,14.385-3.891,21.459-1.369,5.927-6.039,9.319-12.183,9.467C111,351.264,105.5,351.159,100,351.162Zm24.91-25.709c-5.811,2.976-10.624,4.936-14.894,7.76-4.9,3.243-8.716,3.279-13.029-1.133a46.413,46.413,0,0,0-11.09-8.413c-1.169,6.054-2.371,11.5-3.22,17-.42,2.72,1.692,3.28,3.815,3.285,10.283.021,20.566-.006,30.849.015,2.688,0,4.433-1.238,4.959-3.941C123.157,335.622,123.889,331.189,124.908,325.453Zm-31.14-7.33-.311,1.214c2.869,3.133,6.41,5.461,9.7,8.084a2.523,2.523,0,0,0,2.966.241q8.064-4.307,16.145-8.572l-.356-.966Z" transform="translate(-75.76 -290.348)" fill="#fff"/>
    </g>
  </g>
</svg>
