<svg xmlns="http://www.w3.org/2000/svg" width="225.121" height="29.355" viewBox="0 0 225.121 29.355">
  <g id="Group_1716" data-name="Group 1716" transform="translate(-981.244 -717.322)">
    <path id="Path_954" data-name="Path 954" d="M948.164,720.981a3.047,3.047,0,0,0,1.116,2.369,3.179,3.179,0,0,0,2.066.744,3.017,3.017,0,0,0,2.438-1.217,3.172,3.172,0,0,0-.744-4.539,3.319,3.319,0,0,0-1.727-.508,3.077,3.077,0,0,0-2.4,1.118A3.133,3.133,0,0,0,948.164,720.981Zm.439,5.518v17.438h5.45V726.5Zm14.087,2.4h-.035a.03.03,0,0,1-.034-.034V726.5H957.44v17.438h5.384V735.81a9.049,9.049,0,0,1,.339-3.082,2.764,2.764,0,0,1,2.843-1.9h.2a2.311,2.311,0,0,1,2.3,1.524,3.6,3.6,0,0,1,.3,1.118,25.037,25.037,0,0,1,.069,2.572v7.89h5.451v-9.717q0-4.469-1.556-6.3-1.524-1.9-5.013-1.894a5.914,5.914,0,0,0-3.859,1.388,4.71,4.71,0,0,0-.847.847A3.924,3.924,0,0,0,962.69,728.9Z" transform="translate(33.08 0.438)" fill="#fff"/>
    <path id="Path_955" data-name="Path 955" d="M985.263,723.981v13.982a4.883,4.883,0,0,0,.542,2.54,4.531,4.531,0,0,0,.88,1.219,4.67,4.67,0,0,0,3.284,1.288H1004.7a4.637,4.637,0,0,0,4.706-4.877V723.778a4.847,4.847,0,0,0-.847-2.946,4.5,4.5,0,0,0-1.522-1.321,4.278,4.278,0,0,0-2.27-.642H989.9a4.583,4.583,0,0,0-3.59,1.725,4.438,4.438,0,0,0-.947,2A6.42,6.42,0,0,0,985.263,723.981Zm5.891,4.47a.03.03,0,0,1,.034.034,6.766,6.766,0,0,0-.475,2.471,6.626,6.626,0,0,0,6.468,6.6h.305a6.431,6.431,0,0,0,4.163-1.625,5.8,5.8,0,0,0,1.016-1.119,6.347,6.347,0,0,0,1.286-3.757v-.2a6.967,6.967,0,0,0-.473-2.4h3.556c.022,0,.031.011.031.034v9.954a2.328,2.328,0,0,1-1.116,1.9,2.681,2.681,0,0,1-1.488.339H990.239a2.537,2.537,0,0,1-1.589-.406c-.069,0-.261-.169-.577-.508a2.29,2.29,0,0,1-.474-1.388v-9.887l.035-.034Zm6.061-1.76h.236a4.187,4.187,0,0,1,3.082,1.455,4.238,4.238,0,0,1-3.217,7.043A4.2,4.2,0,0,1,994.1,733.7a4.26,4.26,0,0,1-1.016-2.743,4.366,4.366,0,0,1,1.219-2.979A4.094,4.094,0,0,1,997.215,726.69Zm9.379-5.047.034.035v4.029a.03.03,0,0,1-.034.033h-.508q-1.117,0-3.556.034v-4.1h.035Q1003.308,721.679,1006.594,721.643Z" transform="translate(65.017 1.332)" fill="#fff"/>
    <path id="Path_956" data-name="Path 956" d="M1035.281,725.37v.136a5.893,5.893,0,0,0,.169,1.287h-.033a20.675,20.675,0,0,1-2.607-.305,20.223,20.223,0,0,1-2.912-.88,18.151,18.151,0,0,1-2.91-1.524,18.4,18.4,0,0,1-2.642-2.1q-.745-.779-1.388-1.49a6.263,6.263,0,0,0-.778,2.912v.238a6.109,6.109,0,0,0,1.422,3.79,5.19,5.19,0,0,0,1.186,1.085v.034a5.965,5.965,0,0,1-2.676-.744v.169a5.883,5.883,0,0,0,1.829,4.232,5.949,5.949,0,0,0,2.132,1.355,3.4,3.4,0,0,0,.813.236c0,.047-.227.1-.677.169a3.9,3.9,0,0,1-.61.067h-.37a6.009,6.009,0,0,1-1.018-.1,5.975,5.975,0,0,0,2.473,3.182,5.849,5.849,0,0,0,3.148.983,8.62,8.62,0,0,1-1.693,1.15,12.214,12.214,0,0,1-5.553,1.424h-.406a11.652,11.652,0,0,1-1.254-.069,16.056,16.056,0,0,0,3.692,1.8,17.005,17.005,0,0,0,5.586.947,17.4,17.4,0,0,0,8.5-2.132,17.262,17.262,0,0,0,4.6-3.859,18.659,18.659,0,0,0,3.115-5.486,17.186,17.186,0,0,0,.983-5.486v-1.049a11.808,11.808,0,0,0,1.693-1.455,11.985,11.985,0,0,0,1.319-1.66h-.034a17.05,17.05,0,0,1-2.369.78c-.61.089-.949.136-1.016.136V723.1a4.837,4.837,0,0,0,1.252-.981,6.561,6.561,0,0,0,1.355-2.3,11.627,11.627,0,0,1-2.471,1.116,8.153,8.153,0,0,1-1.39.339,5.7,5.7,0,0,0-1.286-1.016,5.867,5.867,0,0,0-3.082-.88h-.034a6.071,6.071,0,0,0-6.061,5.992Z" transform="translate(95.716 1.77)" fill="#fff"/>
    <path id="Path_957" data-name="Path 957" d="M1070.62,717.322l-1.286.508a5.638,5.638,0,0,0-2.912,2.4,7.591,7.591,0,0,0-.983,3.893v3.928h-4.5V733.3h4.5v13.374h5.417V733.3h4.5q.034-.237.677-5.214a.03.03,0,0,0-.034-.033h-5.147v-2.912a6.492,6.492,0,0,1,.1-1.524,1.67,1.67,0,0,1,1.185-1.252,5.324,5.324,0,0,1,1.658-.169h2.4v-4.672a36.1,36.1,0,0,0-3.928-.2h-1.658Z" transform="translate(130.159 0)" fill="#fff"/>
  </g>
</svg>
