<svg id="Group_1286" data-name="Group 1286" xmlns="http://www.w3.org/2000/svg" xmlns:xlink="http://www.w3.org/1999/xlink" width="114.193" height="81.395" viewBox="0 0 114.193 81.395">
  <defs>
    <clipPath id="clip-path">
      <rect id="Rectangle_109" data-name="Rectangle 109" width="79.779" height="79.779" fill="#fff"/>
    </clipPath>
  </defs>
  <g id="_7iTqCV.tif" data-name="7iTqCV.tif" transform="translate(0 13.502) rotate(-14)">
    <g id="Group_62" data-name="Group 62" transform="translate(0 0)">
      <path id="Path_100" data-name="Path 100" d="M34.886,0c.069.08.121.2.21.233,3.242,1.072,4.46,3.181,4.387,6.236-.13,5.45-.037,10.9-.037,16.357,0,.262.006.525,0,.786-.036,1.258-.1,1.32-1.3,1.329-1.283.01-1.49-.139-1.518-1.377-.04-1.73-.014-3.46-.015-5.191,0-2.1.02-4.194-.011-6.291-.018-1.191-.089-1.22-1.407-1.267-.058,0-.116,0-.175,0L4.4,10.617c-.175,0-.35,0-.525,0-1.4.049-1.479.119-1.545,1.351-.017.314-.007.629-.007.944q0,20.6,0,41.209c0,2.267,0,2.267,2.458,2.27.175,0,.35,0,.525,0,9.851.236,19.684-.641,29.537-.392,1.664.042,1.8-.09,1.755-1.628-.068-2.556.294-5.117-.008-7.663-.231-1.955.881-2.99,2.63-3.776a2.13,2.13,0,0,1,.216,1.44c.01,6.606-.109,13.214.058,19.817.076,3-2.532,5.91-6.48,5.775-4.021-.137-8.06.1-12.078-.064-4.959-.2-9.912-.07-14.867-.142C2.656,69.712.286,67.7.018,64.6c-.031-.365-.012-.733-.012-1.1q0-28.547.006-57.095a7.716,7.716,0,0,1,.1-1.564C.706,1.981,2.8.339,6.06.29,9.736.235,13.414.281,17.09.267A3.567,3.567,0,0,0,19.127,0ZM19.477,66.124c2.193-.034,3.871-1.472,3.844-3.3s-1.742-3.241-3.926-3.23a3.271,3.271,0,1,0,.082,6.525Zm.132-60.7v-.1c.874,0,1.748,0,2.622,0,.816,0,1.632,0,2.447-.028.367-.014.7-.178.723-.55.027-.392-.33-.508-.677-.591a1.555,1.555,0,0,0-.346-.03c-3.086-.039-6.172-.084-9.259-.109-.585,0-1.286.019-1.244.76.034.617.663.64,1.2.643C16.582,5.428,18.1,5.422,19.609,5.422Z" transform="translate(0)" fill="#fff"/>
      <path id="Path_102" data-name="Path 102" d="M4.4,2.2A2.159,2.159,0,0,1,2.165,4.461,2.156,2.156,0,0,1,0,2.29,2.23,2.23,0,0,1,2.07,0,2.237,2.237,0,0,1,4.4,2.2Z" transform="translate(17.455 59.967)" fill="#fff"/>
    </g>
  </g>
  <g id="Group_89" data-name="Group 89" transform="translate(34.414 0)">
    <g id="Group_60" data-name="Group 60" clip-path="url(#clip-path)">
      <g id="Group_59" data-name="Group 59" transform="translate(5.759 4.101)">
        <path id="Path_98" data-name="Path 98" d="M135.58,351.614l15.608-45.17c-10.16-4.247-20.372-7.065-30.2-10.271-3.082,1.537-1,7.758-6.809,6.539a19.071,19.071,0,0,1,2.953-8.978c2.028-3.045,5.109-4.442,8.657-3.507a232.842,232.842,0,0,1,23.957,8.114,8.584,8.584,0,0,1,4.725,10.775q-8,24.04-16.312,47.974a8.258,8.258,0,0,1-10.763,5.256c-7.385-2.349-14.743-4.814-21.992-7.55-6.16-2.325-8.1-9.77-4.308-15.344a2.308,2.308,0,0,1,4.1.442c.368.824.681,1.481,1.5,1.764C116.09,344.908,125.494,348.141,135.58,351.614Z" transform="translate(-81.741 -289.94)" fill="#fff"/>
        <path id="Path_99" data-name="Path 99" d="M94.649,341.41c-3.873,0-7.747.052-11.619-.009-5.643-.089-7.888-2.434-7.126-8.085a153.613,153.613,0,0,1,3-15.456,8.911,8.911,0,0,1,9.035-7.133q12.86-.177,25.725,0c4.658.062,6.986,2.575,6.369,7.18-.733,5.471-1.76,10.923-3.032,16.295-1.067,4.5-4.706,7.076-9.494,7.189C103.226,341.487,98.936,341.408,94.649,341.41Zm19.412-19.522c-4.529,2.26-8.279,3.748-11.607,5.892-3.819,2.462-6.792,2.49-10.154-.86a36.084,36.084,0,0,0-8.642-6.388c-.911,4.6-1.847,8.733-2.509,12.911-.328,2.066,1.318,2.491,2.973,2.494,8.014.016,16.027,0,24.04.011,2.095,0,3.455-.94,3.865-2.992C112.7,329.61,113.267,326.244,114.061,321.888Zm-24.267-5.566-.243.921c2.236,2.379,5,4.147,7.561,6.139a2.007,2.007,0,0,0,2.311.183q6.284-3.27,12.582-6.509l-.278-.734Z" transform="translate(-75.76 -295.231)" fill="#fff"/>
      </g>
    </g>
  </g>
</svg>
