<svg xmlns="http://www.w3.org/2000/svg" width="76.988" height="90.01" viewBox="0 0 76.988 90.01">
  <g id="Group_1702" data-name="Group 1702" transform="translate(-8586.125 -993.87)">
    <g id="EVIv2g" transform="translate(8610.987 993.87) rotate(20)">
      <g id="Group_87" data-name="Group 87" transform="translate(0 0)">
        <path id="Path_181" data-name="Path 181" d="M0,36.293Q0,21.039,0,5.787C.008,1.5,1.5.008,5.747.005q21.832-.01,43.665,0c4.213,0,5.7,1.455,5.7,5.594.015,10.634-.015,21.268.028,31.9a5.629,5.629,0,0,1-1.49,3.956c-5.088,5.872-10.031,11.872-15.181,17.689-2.683,3.03-4.517,6.264-4.846,10.392-.252,3.16-.445,3.149-3.685,3.15q-12.063,0-24.125,0C1.371,72.683.009,71.3.005,66.8Q-.008,51.545,0,36.293ZM27.516,8.866q-7.46,0-14.919,0c-1.6,0-3.378-.187-3.668,2.047-.192,1.485,1.106,2.235,3.7,2.237q15.019.01,30.037,0a9.038,9.038,0,0,0,1.977-.129A1.893,1.893,0,0,0,46.2,11a1.9,1.9,0,0,0-1.591-2,9.55,9.55,0,0,0-1.978-.123Q35.075,8.86,27.516,8.866Zm.079,10.348v.011q-8.058,0-16.116,0c-1.445,0-2.548.573-2.546,2.146,0,1.475,1.123,1.978,2.429,2.1.461.043.928.031,1.392.031q14.923,0,29.845,0a8.381,8.381,0,0,0,1.979-.109,1.947,1.947,0,0,0,1.56-2.559c-.344-1.481-1.574-1.617-2.825-1.618Q35.454,19.213,27.595,19.214Zm.147,14.632v-.008c5.315,0,10.631.008,15.946-.005,1.456,0,2.514-.637,2.5-2.208-.016-1.493-1.087-2-2.436-2.054-.4-.015-.8-.02-1.2-.02q-15.05,0-30.1,0a10.634,10.634,0,0,0-1.982.132,1.873,1.873,0,0,0-1.537,1.63,1.966,1.966,0,0,0,.808,1.918,3.415,3.415,0,0,0,2.45.61ZM19.976,39.9c-1.328,0-2.657.006-3.985,0-1.394-.008-2.792.023-4.182-.055-1.507-.084-2.688.26-2.887,1.973-.157,1.358,1,2.33,2.825,2.338,5.579.026,11.158,0,16.737.013,1.565,0,2.7-.7,2.722-2.258S29.963,39.9,28.544,39.9C25.688,39.915,22.832,39.907,19.976,39.9Z" transform="translate(0 0)" fill="#fff"/>
        <path id="Path_182" data-name="Path 182" d="M.054,30.549a14.2,14.2,0,0,1,3.853-9.523c5.671-6.3,11.067-12.858,16.548-19.333C22.31-.5,22.275-.529,24.48,1.407c.349.306.679.634,1.028.94,2.473,2.167,2.525,2.21.47,4.643Q16.8,17.85,7.544,28.636c-1.752,2.036-4.488,2.15-6.808,3.037C-.191,32.029,0,31.075.054,30.549Z" transform="translate(37.178 40.515)" fill="#fff"/>
        <path id="Path_183" data-name="Path 183" d="M7.075,4.253A3.048,3.048,0,0,1,5.539,6.7c-.868.464-1.379-.54-1.978-.988A24.08,24.08,0,0,1,1.305,3.773C.728,3.218-.347,2.839.111,1.756A2.872,2.872,0,0,1,2.386.023C4.2-.269,7.072,2.229,7.075,4.253Z" transform="translate(61.506 36.02)" fill="#fff"/>
      </g>
    </g>
  </g>
</svg>
