<svg xmlns="http://www.w3.org/2000/svg" width="53.606" height="105.699" viewBox="0 0 53.606 105.699">
  <g id="Group_1843" data-name="Group 1843" transform="translate(-8591.901 -980.385)">
    <g id="_7iTqCV.tif" data-name="7iTqCV.tif" transform="translate(8591.901 980.385)">
      <g id="Group_62" data-name="Group 62">
        <path id="Path_100" data-name="Path 100" d="M373.418,249.391c.094.121.164.307.285.352,4.4,1.619,6.053,4.806,5.953,9.421-.177,8.233-.05,16.473-.05,24.709,0,.4.008.793,0,1.188-.048,1.9-.132,1.994-1.76,2.008-1.742.015-2.022-.21-2.06-2.08-.054-2.613-.018-5.227-.02-7.841,0-3.168.027-6.336-.015-9.5-.024-1.8-.121-1.843-1.909-1.914-.079,0-.158,0-.238,0l-41.554-.3c-.237,0-.475-.006-.713,0-1.893.073-2.007.18-2.1,2.04-.023.474-.009.95-.009,1.426q0,31.125,0,62.251c0,3.424,0,3.424,3.336,3.429.238,0,.475-.006.713,0,13.369.357,26.714-.968,40.085-.593,2.259.063,2.437-.135,2.381-2.459-.093-3.861.4-7.73-.01-11.576-.314-2.953,1.195-4.517,3.57-5.7a3.539,3.539,0,0,1,.293,2.176c.014,9.979-.147,19.962.079,29.936a8.441,8.441,0,0,1-8.794,8.724c-5.457-.207-10.938.154-16.391-.1-6.729-.307-13.452-.106-20.176-.215a7.983,7.983,0,0,1-8.219-7.792c-.043-.552-.017-1.108-.017-1.663q0-43.124.008-86.248a12.957,12.957,0,0,1,.132-2.363c.811-4.324,3.659-6.8,8.077-6.878,4.988-.083,9.979-.015,14.968-.035a4.4,4.4,0,0,0,2.765-.4Zm-20.913,99.887a4.932,4.932,0,1,0-4.8-4.86A4.97,4.97,0,0,0,352.505,349.278Zm.179-91.7v-.146c1.186,0,2.372,0,3.558,0,1.107-.006,2.215,0,3.321-.043a.907.907,0,0,0,.981-.831c.036-.592-.448-.767-.919-.893a1.9,1.9,0,0,0-.47-.046c-4.188-.06-8.377-.127-12.566-.164-.794-.007-1.745.029-1.689,1.148.047.931.9.967,1.623.971C348.577,257.59,350.631,257.582,352.685,257.582Z" transform="translate(-326.073 -249.391)" fill="#fff"/>
        <path id="Path_102" data-name="Path 102" d="M361.471,366.338a3.048,3.048,0,1,1-6.094.129,3.048,3.048,0,1,1,6.094-.129Z" transform="translate(-331.747 -271.445)" fill="#fff"/>
      </g>
    </g>
  </g>
</svg>
