<svg id="Yg2PZY.tif" xmlns="http://www.w3.org/2000/svg" width="90.323" height="93.428" viewBox="0 0 90.323 93.428">
  <g id="Group_68" data-name="Group 68" transform="translate(0 0)">
    <path id="Path_136" data-name="Path 136" d="M978.184,292.759a29.038,29.038,0,0,0-29.165,25.284c-.161,1.217-.643,2.932.733,3.358,3.415,1.058,2.774,3.68,2.781,6.082q.039,14.768,0,29.537c-.009,4.187-.4,4.571-4.563,3.723-7.606-1.549-12.92-5.973-15.015-13.484-2.125-7.617-.691-14.711,5.3-20.212a8.429,8.429,0,0,0,2.981-6.766c.256-19.243,15.633-34.947,35.772-35.5a36.372,36.372,0,0,1,37.545,31.686c.777,5.508,1.469,10.639,4.942,15.6,5.628,8.045,2.534,19.758-5.648,25.456a11.284,11.284,0,0,0-3.972,4.316c-3.285,6.679-8.477,11.054-15.531,13.723-3.766,1.424-7.254,2.986-11.391,2.554-2.734-.285-4.73-1.4-4.7-4.241s2.054-4.082,4.8-4.1a20.085,20.085,0,0,1,4.845.1c6.522,1.608,10.595-2.191,14.571-6.3.8-.83,1.612-1.615.026-2.633-1.068-.687-.736-2.04-.737-3.132-.019-10.593.016-21.187-.03-31.78-.01-2.388.363-4.049,3.329-4.26,2.576-.183,2.038-2.447,1.868-4.1-1.321-12.877-13.9-24.506-26.874-24.9C979.432,292.742,978.808,292.759,978.184,292.759Z" transform="translate(-932.032 -284.763)" fill="#fff"/>
    <path id="Path_137" data-name="Path 137" d="M1001.387,320.533c2.513.129,4.076,1.5,4.176,3.916a3.756,3.756,0,0,1-3.854,4.174,3.81,3.81,0,0,1-4.362-4.049C997.326,322.161,998.9,320.749,1001.387,320.533Z" transform="translate(-944.376 -291.523)" fill="#fff"/>
    <path id="Path_138" data-name="Path 138" d="M1001.008,362.931c2.678.3,4.592,1.442,4.56,4.142a4.116,4.116,0,0,1-8.222.109C997.219,364.737,998.767,363.356,1001.008,362.931Z" transform="translate(-944.375 -299.537)" fill="#fff"/>
    <path id="Path_139" data-name="Path 139" d="M1001.553,349.026c2.411.222,3.957,1.526,3.934,3.991a3.719,3.719,0,0,1-3.948,4.012c-2.573,0-4.3-1.487-4.182-4.14C997.463,350.5,999.043,349.157,1001.553,349.026Z" transform="translate(-944.377 -296.909)" fill="#fff"/>
    <path id="Path_140" data-name="Path 140" d="M969.234,325.154c.115-2.6,1.161-4.328,3.719-4.487a3.971,3.971,0,1,1,.573,7.919A3.628,3.628,0,0,1,969.234,325.154Z" transform="translate(-939.063 -291.547)" fill="#fff"/>
    <path id="Path_141" data-name="Path 141" d="M987.163,342.652c-2.621-.118-3.938-1.619-3.892-4.07a3.665,3.665,0,0,1,4.127-3.839,3.763,3.763,0,0,1,3.873,4.145C991.24,341.5,989.624,342.606,987.163,342.652Z" transform="translate(-941.715 -294.208)" fill="#fff"/>
    <path id="Path_142" data-name="Path 142" d="M1001.31,342.63c-2.313-.265-4.058-1.419-4.049-3.89a3.817,3.817,0,0,1,4.263-4.083,3.958,3.958,0,0,1,3.916,4.138C1005.474,341.259,1003.8,342.482,1001.31,342.63Z" transform="translate(-944.36 -294.192)" fill="#fff"/>
    <path id="Path_143" data-name="Path 143" d="M969.234,352.956c.137-2.589,1.488-4.118,3.932-4.051a3.948,3.948,0,0,1,4.109,4.293c-.04,2.5-1.838,3.8-4.162,3.783C970.632,356.965,969.508,355.214,969.234,352.956Z" transform="translate(-939.063 -296.886)" fill="#fff"/>
    <path id="Path_144" data-name="Path 144" d="M991.3,324.653c-.226,2.47-1.531,4-4.029,3.952a3.98,3.98,0,1,1,.061-7.96C989.839,320.632,991.1,322.2,991.3,324.653Z" transform="translate(-941.72 -291.545)" fill="#fff"/>
    <path id="Path_145" data-name="Path 145" d="M973.543,342.654c-2.6-.07-4.211-1.167-4.238-3.774a3.778,3.778,0,0,1,3.856-4.144c2.494-.127,3.957,1.5,4.088,3.891C977.385,341.125,975.945,342.5,973.543,342.654Z" transform="translate(-939.076 -294.206)" fill="#fff"/>
    <path id="Path_146" data-name="Path 146" d="M991.326,353.185c-.384,2.238-1.564,3.977-4.09,3.83-2.318-.135-4.1-1.48-3.938-4.045.166-2.63,1.9-4,4.52-3.867C990.213,349.224,991.267,350.766,991.326,353.185Z" transform="translate(-941.719 -296.921)" fill="#fff"/>
    <path id="Path_147" data-name="Path 147" d="M973.147,362.967c2.361.192,4.016,1.4,4.14,3.858a3.721,3.721,0,0,1-3.805,4.166,3.616,3.616,0,0,1-4.139-3.773C969.221,364.718,970.637,363.342,973.147,362.967Z" transform="translate(-939.082 -299.543)" fill="#fff"/>
    <path id="Path_148" data-name="Path 148" d="M991.316,367.2c-.472,2.67-1.913,4.063-4.383,3.8a3.969,3.969,0,1,1,.678-7.909C990.063,363.313,991.147,365.048,991.316,367.2Z" transform="translate(-941.717 -299.562)" fill="#fff"/>
  </g>
</svg>
