<svg xmlns="http://www.w3.org/2000/svg" xmlns:xlink="http://www.w3.org/1999/xlink" width="95.155" height="97.407" viewBox="0 0 95.155 97.407">
  <defs>
    <linearGradient id="linear-gradient" x1="0.829" y1="0.081" x2="0.5" y2="1.103" gradientUnits="objectBoundingBox">
      <stop offset="0" stop-color="#a378ef"/>
      <stop offset="1" stop-color="#23a1d0"/>
    </linearGradient>
  </defs>
  <g id="Group_1841" data-name="Group 1841" transform="translate(-3117 -2608.136)">
    <path id="Path_1026" data-name="Path 1026" d="M26.1,0c2.343,1.07,4.678,2.16,7.031,3.206q10.532,4.685,21.076,9.342,7.48,3.309,14.967,6.6,3.369,1.487,6.733,2.986a1.857,1.857,0,0,1,1.151.942,1.344,1.344,0,0,1-1.371,1.868c-2.172.035-4.345.018-6.517.018q-20.175,0-40.35-.01A11.8,11.8,0,0,0,18.712,29.8a10.787,10.787,0,0,0-2.166,6.517q-.028,8.29,0,16.58a2.214,2.214,0,0,1-1,2.039,1.973,1.973,0,0,1-2.005.077q-2.848-1.243-5.7-2.489c-1.315-.573-2.636-1.13-3.948-1.71a6.148,6.148,0,0,1-3.261-8.5q3.6-8.028,7.182-16.066Q12.241,16.33,16.65,6.413c.571-1.281,1.139-2.567,1.787-3.809A7.017,7.017,0,0,1,21.3,0Z" transform="translate(3117 2608.136)" fill="url(#linear-gradient)"/>
    <path id="Path_1027" data-name="Path 1027" d="M178.822,290.188a24.356,24.356,0,0,1-4.473-2.081,15.543,15.543,0,0,1-6.66-8.922,15.819,15.819,0,1,1,31.012-4.5,15.121,15.121,0,0,1-3.366,9.854,15.387,15.387,0,0,1-8.4,5.514,1.236,1.236,0,0,0-.253.131Zm9.571-12.219a4.068,4.068,0,0,0-1.221-3.022,8.187,8.187,0,0,0-3.232-1.983,8.258,8.258,0,0,1-2.028-1.062,1.293,1.293,0,0,1-.592-1.411,1.384,1.384,0,0,1,1.2-1.06,6.387,6.387,0,0,1,2.831.195c1.786.483,1.785.484,2.255-1.382a.557.557,0,0,1,.018-.094c.281-.635-.058-.928-.6-1.156a5.716,5.716,0,0,0-1.748-.461c-.831-.068-1.062-.492-1.087-1.249-.041-1.244-.209-1.341-1.5-1.245-.625.047-1.187.145-1.072.959a1.612,1.612,0,0,1-1.36,2.029,2.4,2.4,0,0,0-.51.259,4.343,4.343,0,0,0-2.1,5.056,4.951,4.951,0,0,0,2.718,2.912c1.12.615,2.381.918,3.458,1.617a1.6,1.6,0,0,1,.834,1.6,1.646,1.646,0,0,1-1.289,1.377,4.871,4.871,0,0,1-3.452-.239c-1.968-.756-1.787-1.13-2.484,1.358A.854.854,0,0,0,178,282.16a9.42,9.42,0,0,0,2.366.72c.7.1,1.067.4,1.013,1.182-.031.454-.11,1.055.34,1.329a2.558,2.558,0,0,0,1.955.1c.564-.141.443-.754.43-1.233-.037-1.316-.031-1.316,1.269-1.827a4.753,4.753,0,0,0,3.016-4.46" transform="translate(2992.654 2415.355)" fill="url(#linear-gradient)"/>
    <path id="Path_1028" data-name="Path 1028" d="M122.112,118.5q7.859,0,15.718,0c4.7,0,9.392.024,14.088.024,2.689,0,4.87.911,6.162,3.407a6.922,6.922,0,0,1,.689,3.242q0,15.865,0,31.73,0,5.224,0,10.449a6.279,6.279,0,0,1-6.536,6.592c-2.333.01-4.665-.013-7,.008-.628.006-.867-.076-.775-.844a22.359,22.359,0,0,0-.092-6.294c-.091-.558.026-.82.666-.806,1.693.036,3.387-.007,5.08.03.584.013.765-.157.763-.752q-.028-9.49.009-18.98c0-.813-.423-.747-.955-.747q-11.886.008-23.773,0-15.817,0-31.634,0c-1.262,0-1.141-.143-1.142,1.113,0,6.135.012,12.27-.015,18.405,0,.733.165,1,.942.966,1.563-.062,3.13-.014,4.7-.018.976,0,1.019,0,.878.929a21.218,21.218,0,0,0-.174,5.148c.015.159,0,.32.021.479.156,1.357.158,1.356-1.177,1.355-2.173,0-4.346.007-6.519,0a6.176,6.176,0,0,1-6.555-6.551q-.027-21.232-.01-42.465a6.312,6.312,0,0,1,6.646-6.417c6.229-.023,12.459.015,18.688.023q5.654.007,11.308,0V118.5m-.015,14.3v0q6.179,0,12.358,0,7.616.011,15.233.035c1.165,0,1.169,0,1.17-1.112,0-1.469-.053-2.941.016-4.407.037-.8-.256-.952-.975-.943-3.225.04-6.451.037-9.677.038q-13.941,0-27.881,0c-6,0-12.008.014-18.012-.013-.739,0-1,.174-.964.948.063,1.466.017,2.938.017,4.407,0,1.039,0,1.044,1.029,1.045q6.371.005,12.742,0H122.1" transform="translate(3053.386 2519.937)" fill="url(#linear-gradient)"/>
  </g>
</svg>
