<svg xmlns="http://www.w3.org/2000/svg" xmlns:xlink="http://www.w3.org/1999/xlink" width="170.779" height="141.953" viewBox="0 0 170.779 141.953">
  <defs>
    <clipPath id="clip-path">
      <rect id="Rectangle_110" data-name="Rectangle 110" width="129.09" height="141.953" fill="#fff"/>
    </clipPath>
  </defs>
  <g id="Group_1700" data-name="Group 1700" transform="translate(-6382.39 -2292.567)">
    <g id="Group_1284" data-name="Group 1284" transform="translate(6382.39 2292.567)">
      <g id="Group_63" data-name="Group 63" clip-path="url(#clip-path)">
        <g id="_7iTqCV.tif" data-name="7iTqCV.tif" transform="translate(66.209 -30.28)">
          <g id="Group_62" data-name="Group 62">
            <path id="Path_100" data-name="Path 100" d="M389.813,249.391c.126.163.22.414.384.474,5.924,2.18,8.149,6.47,8.015,12.683-.238,11.084-.067,22.177-.067,33.265,0,.533.011,1.067,0,1.6-.065,2.559-.177,2.685-2.369,2.7-2.345.021-2.722-.283-2.774-2.8-.073-3.517-.025-7.037-.027-10.556,0-4.264.036-8.53-.021-12.794-.032-2.422-.163-2.482-2.571-2.577-.106,0-.213,0-.32,0l-55.943-.4c-.319,0-.64-.008-.96,0-2.549.1-2.7.242-2.823,2.747-.031.638-.012,1.279-.012,1.919q0,41.9,0,83.807c0,4.609.007,4.609,4.491,4.616.32,0,.639-.008.96,0,18,.481,35.964-1.3,53.965-.8,3.041.085,3.281-.182,3.206-3.311-.125-5.2.536-10.407-.014-15.584-.422-3.975,1.609-6.082,4.806-7.68a4.765,4.765,0,0,1,.394,2.929c.018,13.435-.2,26.874.106,40.3A11.364,11.364,0,0,1,386.4,391.682c-7.348-.279-14.725.207-22.066-.129-9.059-.414-18.11-.143-27.163-.289-6.244-.1-10.576-4.193-11.065-10.49-.058-.743-.023-1.492-.023-2.239q0-58.056.011-116.114a17.445,17.445,0,0,1,.177-3.181c1.092-5.821,4.927-9.16,10.875-9.259,6.716-.112,13.434-.019,20.151-.048,1.256-.005,2.576.274,3.723-.543ZM361.658,383.867c4.007-.068,7.073-2.994,7.024-6.7a6.825,6.825,0,0,0-7.174-6.568,6.64,6.64,0,0,0,.15,13.271Zm.241-123.448v-.2c1.6,0,3.194.005,4.79,0,1.49-.007,2.982,0,4.471-.057a1.22,1.22,0,0,0,1.32-1.118c.049-.8-.6-1.032-1.236-1.2a2.567,2.567,0,0,0-.633-.062c-5.639-.08-11.277-.17-16.917-.222-1.069-.01-2.349.039-2.273,1.546.063,1.254,1.21,1.3,2.185,1.307C356.369,260.43,359.134,260.419,361.9,260.419Z" transform="translate(-259.153 -249.391)" fill="#fff"/>
            <path id="Path_101" data-name="Path 101" d="M325.449,352.206q0,22.55-.013,45.1c-.009,4.5-2.355,7.7-6.314,8.966a9.906,9.906,0,0,1-3.159.332c-13.644-.059-27.289-.1-40.933-.2-5.7-.041-9.718-3.565-9.542-8.95.462-14.055-1.457-28.042-.981-42.09.1-2.876-.252-5.786.063-8.631.994-9,.848-18.03.852-27.058,0-7.143.015-14.286-.005-21.429a8.934,8.934,0,0,1,3.148-7.364,7.625,7.625,0,0,1,4.637-1.917c.533-.021,1.065-.094,1.6-.085,13.533.242,27.052-.717,40.587-.466,6.54.12,10.036,3.481,10.052,10.111C325.477,316.42,325.45,334.313,325.449,352.206Zm-56.537-7.179q0,17.1,0,34.207c0,.853.026,1.706.025,2.558a1.728,1.728,0,0,0,1.96,1.96c.639,0,1.279.031,1.918.026q22.842-.194,45.686-.392c.213,0,.428-.019.639,0,1.463.108,2.208-.5,2.112-2.032-.047-.744,0-1.492,0-2.238V332.755c0-7.672.017-15.345-.011-23.018-.01-2.682-.126-2.86-2.613-2.843-11.171.073-22.333-.09-33.489-.735-2.867-.166-5.753-.027-8.631-.024-1.811,0-3.623.031-5.435.014-1.446-.013-2.177.635-2.144,2.113.02.851-.016,1.7-.016,2.557Q268.911,327.923,268.911,345.027Zm32.028,49.617c-.024-3.067-2.826-5.531-6.234-5.482a5.638,5.638,0,0,0-5.225,5.421,5.826,5.826,0,0,0,5.324,5.712C298.095,400.323,300.962,397.682,300.939,394.643Z" transform="translate(-264.431 -246.054)" fill="#fff"/>
            <path id="Path_102" data-name="Path 102" d="M363.581,367.391a4.1,4.1,0,1,1-8.2.174,4.1,4.1,0,1,1,8.2-.174Z" transform="translate(-256.645 -239.64)" fill="#fff"/>
            <path id="Path_103" data-name="Path 103" d="M289.737,386.574a3.188,3.188,0,0,1,3.116-3.347,3.527,3.527,0,0,1,3.761,3.148,3.68,3.68,0,0,1-3.733,3.57A3.3,3.3,0,0,1,289.737,386.574Z" transform="translate(-262.264 -237.933)" fill="#fff"/>
          </g>
        </g>
      </g>
    </g>
    <g id="icQX4o" transform="translate(6472.429 2328.693)">
      <g id="Group_88" data-name="Group 88" transform="translate(0)">
        <path id="Path_185" data-name="Path 185" d="M-668.723-277.444c4.5,0,9.014.164,13.509-.032,11.968-.521,21.455,7.26,24.479,18.229,2.879,10.447,1.541,20.192-6.468,28.178-5.012,5-11.449,6.47-18.294,6.537-4.646.045-9.294.05-13.939-.013a4.584,4.584,0,0,0-3.6,1.482c-3.555,3.622-7.182,7.172-10.793,10.74a5.859,5.859,0,0,1-4.283,2.132,4.693,4.693,0,0,1-4.8-4.712q-.106-3.965-.007-7.934a2.582,2.582,0,0,0-1.649-2.655c-9.632-5.01-14.713-13.1-15.461-23.816-.895-12.806,8.98-25.321,21.618-27.655,5.455-1.008,10.982-.286,16.472-.476C-670.869-277.476-669.8-277.445-668.723-277.444Z" transform="translate(710.086 277.514)" fill="#fff"/>
      </g>
    </g>
    <text id="_743536" data-name="743536" transform="translate(6478.771 2346.368)" fill="#f04d64" font-size="26" font-family="Montserrat-ExtraBold, Montserrat" font-weight="800"><tspan x="2" y="25">7435</tspan></text>
  </g>
</svg>
