<svg xmlns="http://www.w3.org/2000/svg" width="74.135" height="78.631" viewBox="0 0 74.135 78.631">
  <g id="Group_1394" data-name="Group 1394" transform="translate(-49.261 -49.8)">
    <g id="GHJ7ew" transform="translate(49.261 49.8)">
      <g id="Group_84" data-name="Group 84" transform="translate(0 0)">
        <path id="Path_156" data-name="Path 156" d="M-755.048-116.927q0,16.912,0,33.824a17.808,17.808,0,0,1-.057,2.314,3.329,3.329,0,0,1-3.335,3.214,3.5,3.5,0,0,1-3.741-3.06,14.4,14.4,0,0,1-.083-2.311q-.006-33.824,0-67.648c0-3.785,1.2-5.6,3.673-5.6,2.4,0,3.546,1.828,3.547,5.677Q-755.046-133.723-755.048-116.927Z" transform="translate(806.883 156.196)" fill="#fff"/>
        <path id="Path_157" data-name="Path 157" d="M-810.338-116.74q0-17.258,0-34.515a5.669,5.669,0,0,1,.4-2.946,3.42,3.42,0,0,1,3.174-1.965,3.5,3.5,0,0,1,3.252,2.216,6.868,6.868,0,0,1,.384,2.96q0,34.168,0,68.335c0,.309,0,.618-.01.926-.129,2.642-1.488,4.19-3.664,4.179-2.237-.01-3.525-1.48-3.531-4.212q-.035-15.636-.012-31.272Z" transform="translate(832.655 156.181)" fill="#fff"/>
        <path id="Path_158" data-name="Path 158" d="M-834.35-103.978q0-11.815,0-23.629c.005-2.806,1.354-4.493,3.529-4.511,2.143-.018,3.647,1.723,3.651,4.473q.038,23.745-.005,47.489c-.006,2.854-1.656,4.543-3.971,4.339-2.02-.178-3.189-1.591-3.2-4.069C-834.365-87.917-834.349-95.947-834.35-103.978Z" transform="translate(845.525 143.288)" fill="#fff"/>
        <path id="Path_159" data-name="Path 159" d="M-731.018-97.448c0,6.031.016,12.062-.007,18.093-.01,2.78-1.415,4.455-3.617,4.426-2.11-.027-3.563-1.662-3.571-4.294q-.05-18.325,0-36.649c.008-2.563,1.585-4.256,3.666-4.216,2.109.04,3.506,1.7,3.517,4.315C-731-109.665-731.019-103.556-731.018-97.448Z" transform="translate(793.999 136.839)" fill="#fff"/>
        <path id="Path_160" data-name="Path 160" d="M-786.3-94.128c0-5.1-.017-10.2.007-15.3.013-2.936,1.455-4.712,3.685-4.645,2.15.065,3.514,1.782,3.52,4.594q.031,15.185,0,30.37c-.006,2.954-1.438,4.671-3.71,4.61-2.2-.058-3.484-1.7-3.5-4.559C-786.318-84.082-786.3-89.106-786.3-94.128Z" transform="translate(819.77 133.616)" fill="#fff"/>
        <path id="Path_161" data-name="Path 161" d="M-858.422-87.29c0-3.164-.036-6.329.013-9.493.037-2.4,1.3-3.84,3.328-3.959a3.611,3.611,0,0,1,3.766,3.612q.187,9.951.007,19.908a3.625,3.625,0,0,1-3.638,3.756c-2.034-.051-3.435-1.653-3.467-4.1C-858.455-80.807-858.423-84.049-858.422-87.29Z" transform="translate(858.435 126.471)" fill="#fff"/>
        <path id="Path_162" data-name="Path 162" d="M-706.991-86.34c0,3.012.031,6.025-.009,9.037-.031,2.354-1.348,3.913-3.29,4.026a3.7,3.7,0,0,1-3.83-3.823q-.161-9.266-.006-18.534a3.5,3.5,0,0,1,3.844-3.713c2.073.125,3.244,1.49,3.28,3.971C-706.958-92.365-706.991-89.352-706.991-86.34Z" transform="translate(781.114 125.725)" fill="#fff"/>
      </g>
    </g>
  </g>
</svg>
