<svg xmlns="http://www.w3.org/2000/svg" width="100.813" height="105.699" viewBox="0 0 100.813 105.699">
  <g id="Group_1702" data-name="Group 1702" transform="translate(-8588.901 -980.385)">
    <g id="_7iTqCV.tif" data-name="7iTqCV.tif" transform="translate(8588.901 980.385)">
      <g id="Group_62" data-name="Group 62">
        <path id="Path_100" data-name="Path 100" d="M373.418,249.391c.094.121.164.307.285.352,4.4,1.619,6.053,4.806,5.953,9.421-.177,8.233-.05,16.473-.05,24.709,0,.4.008.793,0,1.188-.048,1.9-.132,1.994-1.76,2.008-1.742.015-2.022-.21-2.06-2.08-.054-2.613-.018-5.227-.02-7.841,0-3.168.027-6.336-.015-9.5-.024-1.8-.121-1.843-1.909-1.914-.079,0-.158,0-.238,0l-41.554-.3c-.237,0-.475-.006-.713,0-1.893.073-2.007.18-2.1,2.04-.023.474-.009.95-.009,1.426q0,31.125,0,62.251c0,3.424,0,3.424,3.336,3.429.238,0,.475-.006.713,0,13.369.357,26.714-.968,40.085-.593,2.259.063,2.437-.135,2.381-2.459-.093-3.861.4-7.73-.01-11.576-.314-2.953,1.195-4.517,3.57-5.7a3.539,3.539,0,0,1,.293,2.176c.014,9.979-.147,19.962.079,29.936a8.441,8.441,0,0,1-8.794,8.724c-5.457-.207-10.938.154-16.391-.1-6.729-.307-13.452-.106-20.176-.215a7.983,7.983,0,0,1-8.219-7.792c-.043-.552-.017-1.108-.017-1.663q0-43.124.008-86.248a12.957,12.957,0,0,1,.132-2.363c.811-4.324,3.659-6.8,8.077-6.878,4.988-.083,9.979-.015,14.968-.035a4.4,4.4,0,0,0,2.765-.4Zm-20.913,99.887a4.932,4.932,0,1,0-4.8-4.86A4.97,4.97,0,0,0,352.505,349.278Zm.179-91.7v-.146c1.186,0,2.372,0,3.558,0,1.107-.006,2.215,0,3.321-.043a.907.907,0,0,0,.981-.831c.036-.592-.448-.767-.919-.893a1.9,1.9,0,0,0-.47-.046c-4.188-.06-8.377-.127-12.566-.164-.794-.007-1.745.029-1.689,1.148.047.931.9.967,1.623.971C348.577,257.59,350.631,257.582,352.685,257.582Z" transform="translate(-326.073 -249.391)" fill="#fff"/>
        <path id="Path_102" data-name="Path 102" d="M361.471,366.338a3.048,3.048,0,1,1-6.094.129,3.048,3.048,0,1,1,6.094-.129Z" transform="translate(-331.747 -271.445)" fill="#fff"/>
      </g>
    </g>
    <g id="EVIv2g" transform="translate(8643.397 990.114) rotate(20)">
      <g id="Group_87" data-name="Group 87" transform="translate(0 0)">
        <path id="Path_181" data-name="Path 181" d="M0,32.249Q0,18.695,0,5.142C.008,1.337,1.328.007,5.107,0q19.4-.009,38.8,0c3.743,0,5.064,1.293,5.069,4.971.013,9.449-.013,18.9.025,28.347a5,5,0,0,1-1.324,3.515c-4.521,5.218-8.913,10.549-13.489,15.718a15.426,15.426,0,0,0-4.306,9.234c-.224,2.808-.4,2.8-3.274,2.8q-10.719,0-21.437,0c-3.95,0-5.161-1.23-5.164-5.233Q-.007,45.8,0,32.249ZM24.45,7.878q-6.628,0-13.257,0c-1.422,0-3-.166-3.259,1.819-.171,1.319.983,1.986,3.289,1.988q13.346.008,26.691,0a8.031,8.031,0,0,0,1.757-.115,1.682,1.682,0,0,0,1.384-1.8,1.686,1.686,0,0,0-1.414-1.777,8.486,8.486,0,0,0-1.758-.109Q31.166,7.873,24.45,7.878Zm.07,9.195v.01q-7.16,0-14.32,0c-1.284,0-2.264.51-2.262,1.907,0,1.311,1,1.758,2.158,1.866.41.038.824.027,1.237.027q13.26,0,26.519,0a7.447,7.447,0,0,0,1.759-.1A1.73,1.73,0,0,0,41,18.511c-.306-1.316-1.4-1.437-2.51-1.438Zm.131,13v-.007c4.723,0,9.447.007,14.17,0,1.294,0,2.234-.566,2.219-1.962-.015-1.327-.966-1.781-2.164-1.825-.354-.013-.708-.017-1.062-.017q-13.373,0-26.745,0a9.449,9.449,0,0,0-1.761.117A1.665,1.665,0,0,0,7.94,27.828a1.747,1.747,0,0,0,.718,1.7,3.035,3.035,0,0,0,2.177.542Zm-6.9,5.384c-1.18,0-2.361.005-3.541,0-1.239-.007-2.481.02-3.716-.049-1.339-.075-2.388.231-2.565,1.754-.14,1.207.887,2.071,2.51,2.078,4.958.023,9.915,0,14.872.012,1.39,0,2.4-.626,2.419-2.006s-1.1-1.793-2.365-1.788C22.826,35.467,20.288,35.46,17.75,35.458Z" fill="#fff"/>
        <path id="Path_182" data-name="Path 182" d="M.048,27.145a12.615,12.615,0,0,1,3.424-8.462c5.039-5.6,9.834-11.426,14.7-17.179C19.824-.443,19.793-.47,21.752,1.25c.31.272.6.563.914.835,2.2,1.925,2.244,1.963.417,4.126Q14.931,15.861,6.7,25.446c-1.557,1.809-3.988,1.91-6.049,2.7C-.17,28.46,0,27.613.048,27.145Z" transform="translate(33.036 36)" fill="#fff"/>
        <path id="Path_183" data-name="Path 183" d="M6.286,3.779a2.709,2.709,0,0,1-1.365,2.17c-.771.412-1.226-.48-1.757-.878a21.4,21.4,0,0,1-2-1.719C.647,2.859-.309,2.523.1,1.56A2.552,2.552,0,0,1,2.12.021C3.729-.239,6.284,1.981,6.286,3.779Z" transform="translate(54.653 32.007)" fill="#fff"/>
      </g>
    </g>
  </g>
</svg>
