<svg xmlns="http://www.w3.org/2000/svg" width="88.637" height="88.636" viewBox="0 0 88.637 88.636">
  <g id="zqYA1G.tif" transform="translate(0 0)">
    <g id="Group_65" data-name="Group 65">
      <path id="Path_104" data-name="Path 104" d="M413.243,363.192V307.6c.307-.084.281-.342.323-.583a19,19,0,0,1,18.612-15.9q25.575,0,51.148-.005a14.593,14.593,0,0,1,2.775.247,18.816,18.816,0,0,1,11.633,6.9,18.413,18.413,0,0,1,4.14,11.7q0,25.573.006,51.148a15.7,15.7,0,0,1-.248,2.774,18.783,18.783,0,0,1-5.656,10.6,18.317,18.317,0,0,1-10,4.946c-.242.037-.5.014-.582.323H429.8c-.515-.552-1.248-.415-1.879-.563a18.55,18.55,0,0,1-9.522-5.53,18.325,18.325,0,0,1-4.835-9.884C413.529,363.531,413.549,363.276,413.243,363.192ZM458,342.721H420.312c-.345,0-.691-.009-1.035,0-1.023.035-1.093.075-1.095,1.1q-.01,8.5.013,17a12.288,12.288,0,0,0,1.672,5.756,15.619,15.619,0,0,0,4.785,5.529,16.125,16.125,0,0,0,9.433,3.264q23.576-.023,47.152-.01a10.53,10.53,0,0,0,2.063-.09,17.417,17.417,0,0,0,10.539-6.266,16.1,16.1,0,0,0,3.752-10.744c-.117-4.53-.025-9.065-.028-13.6,0-2.22.161-1.938-2.015-1.94Q476.776,342.715,458,342.721Zm-21.839-19.247c.184.25.3.408.416.565q1.5,2.009,3,4.017c.5.668,1.025,1.319,1.528,1.987a.531.531,0,0,0,.868.1c1.415-1.061,2.848-2.1,4.262-3.161.588-.441.613-.552.181-1.206-.622-.943-1.291-1.855-1.94-2.779l-2.427-3.456c.326-.169.76-.392.76-.392s4.066-1.717,6.093-2.59c.868-.375.866-.4.535-1.3q-.811-2.211-1.639-4.417c-.4-1.073-.417-1.085-1.6-.686-1.906.64-3.805,1.3-5.7,1.96-.269.093-.514.289-.915-.014,0-.4,0-.886,0-1.37,0-1.969.013-3.938,0-5.908,0-.806-.025-.835-.833-.845q-2.584-.03-5.169,0c-.839.009-.862.037-.869.97-.015,2.117,0,4.234-.012,6.35,0,.324.129.692-.188.954a1.4,1.4,0,0,1-.718-.144c-2.047-.687-4.094-1.373-6.147-2.042-.945-.307-1.05-.259-1.4.685-.561,1.519-1.1,3.047-1.633,4.576-.3.862-.29.875.5,1.179,1.6.616,3.22,1.194,4.809,1.844a8.552,8.552,0,0,1,2.136.965c-.091.165-.15.3-.232.418q-2.095,3.033-4.2,6.062c-.23.333-.476.669,0,1l5.288,3.663Zm41.838,1.3a.468.468,0,0,1,.107.524c-.43,1.914-.869,3.826-1.275,5.745-.188.89-.055,1.027.863,1.037.69.008,1.379-.008,2.069-.006.58,0,.857-.237.971-.849.336-1.832.755-3.649,1.13-5.474.192-.939.188-.964,1.121-.977,1.182-.017,2.364,0,3.547-.005,1.692,0,1.55.144,1.556-1.624,0-.345,0-.69,0-1.035,0-1.22,0-1.228-1.194-1.241-.985-.009-1.97.006-2.955,0-.285,0-.593.1-.84-.138-.025-.093-.083-.189-.066-.271.3-1.59.615-3.178.92-4.767a.387.387,0,0,1,.4-.35c.294-.014.592.009.885-.021.914-.1,2.1.433,2.677-.246.548-.642.146-1.795.174-2.721.023-.781-.075-.865-.813-.89a7.309,7.309,0,0,0-2.454.221c.341-1.711.663-3.23.94-4.757a6.785,6.785,0,0,0,.41-2.823,13.861,13.861,0,0,0-3.069-.125.617.617,0,0,0-.719.565c-.172.916-.388,1.824-.578,2.737-.24,1.152-.459,2.308-.713,3.457-.086.389-.242.726-.771.721-1.947-.02-3.9-.008-5.959-.008l1.525-7.479c-1.11,0-2.086-.018-3.062.005-.8.02-.886.121-1.051.923-.406,1.968-.836,3.931-1.2,5.906-.093.5-.3.658-.765.653-1.132-.013-2.266,0-3.4,0-.444,0-.888-.006-1.329.022a.686.686,0,0,0-.708.769q0,1.255,0,2.512c0,.455.269.576.673.572.986-.011,1.971-.023,2.956,0a4.048,4.048,0,0,1,1.638.122c-.1.392-.2.762-.281,1.136-.268,1.2-.566,2.386-.779,3.591a.712.712,0,0,1-.9.686,2.188,2.188,0,0,0-.443,0c-.912.11-2.1-.442-2.676.265s-.129,1.9-.194,2.869c0,.049.005.1.005.148a.551.551,0,0,0,.635.622c.64-.007,1.281-.018,1.921,0,.7.021.736.106.579.8-.443,1.96-.875,3.922-1.31,5.883-.076.342.023.612.407.619.883.015,1.767-.005,2.65-.012a.858.858,0,0,0,.926-.762c.139-.673.3-1.342.441-2.013q.416-1.941.827-3.883c.074-.353.15-.646.628-.642C474.088,324.784,476.1,324.775,478,324.775Z" transform="translate(-413.243 -291.114)" fill="#fff"/>
      <path id="Path_105" data-name="Path 105" d="M482.7,325.081c.351-1.712.668-3.282,1-4.85a.722.722,0,0,1,.786-.685c1.906.02,3.814.009,5.656.009.376.373.2.707.129,1.024-.273,1.288-.562,2.571-.828,3.861-.078.378-.225.642-.655.642Z" transform="translate(-423.56 -295.337)" fill="#fff"/>
      <text id="USSD" transform="translate(17.489 72.711)" fill="#fff" font-size="19" font-family="Montserrat-Bold, Montserrat" font-weight="700"><tspan x="0" y="0">USSD</tspan></text>
    </g>
  </g>
</svg>
