<svg xmlns="http://www.w3.org/2000/svg" xmlns:xlink="http://www.w3.org/1999/xlink" width="115.712" height="77.713" viewBox="0 0 115.712 77.713">
  <defs>
    <linearGradient id="linear-gradient" x1="0.5" x2="0.5" y2="1" gradientUnits="objectBoundingBox">
      <stop offset="0" stop-color="#1b75bc"/>
      <stop offset="1" stop-color="#3ab9c9"/>
    </linearGradient>
    <clipPath id="clip-path">
      <rect id="Rectangle_553" data-name="Rectangle 553" width="115.712" height="77.713" fill="url(#linear-gradient)"/>
    </clipPath>
  </defs>
  <g id="Group_1842" data-name="Group 1842" clip-path="url(#clip-path)">
    <path id="Path_1029" data-name="Path 1029" d="M46.055,67.418c-1.169.91-2.27,1.684-3.276,2.566A14.766,14.766,0,0,1,35.9,73.129c-6.387,1.365-12.876,1.027-19.339,1-3.75-.017-7.5-.188-11.248-.308a5.673,5.673,0,0,1-3.822-1.228,3.7,3.7,0,0,1-1.3-2.843C-.014,62.074.139,54.4.065,46.724.029,42.946.13,39.165,0,35.391a5.028,5.028,0,0,1,2.019-4.359C4.042,29.361,6,27.612,7.971,25.887q4.374-3.82,8.738-7.653c2.713-2.376,5.476-4.7,8.122-7.147a7.657,7.657,0,0,1,4.495-2.05,16.676,16.676,0,0,1,7.561.433c.516.181.71-.01.725-.526a24.207,24.207,0,0,1,.128-3.384A6.861,6.861,0,0,1,44.3.028C53.95.069,63.6.036,73.249.033,85.04.031,96.831.074,108.622,0a7,7,0,0,1,6.752,4.671,5.8,5.8,0,0,1,.337,1.982c-.131,13.811-.041,27.623-.034,41.434a7.736,7.736,0,0,1-1.3,4.975,6.785,6.785,0,0,1-5.732,2.793q-8.663-.028-17.326-.015c-4.476,0-8.951.014-13.427,0-.579,0-.577.134-.345.6a7.817,7.817,0,0,1-.363,7.591c-.97,1.793-1.848,3.635-2.768,5.455-.7,1.394-1.368,2.812-2.123,4.178a7.784,7.784,0,0,1-12.656,1.414c-.3-.357-.48-.4-.857-.078A7.764,7.764,0,0,1,46.441,71.85a10.136,10.136,0,0,1-.386-4.433M7.491,51.249H7.469q0,7.038,0,14.076c0,1.118,0,1.128,1.116,1.129,6.833,0,13.667.013,20.5-.015a19.725,19.725,0,0,0,4.3-.425A10.444,10.444,0,0,0,37.5,64.545c1.562-1.162,3.078-2.386,4.639-3.549a119.321,119.321,0,0,0,10.5-9.013,47.622,47.622,0,0,0,7.415-8.612,14.8,14.8,0,0,0,2.168-4.847c.227-1.023.024-1.215-1-1.1a26.658,26.658,0,0,0-5.527,1.331,105.223,105.223,0,0,0-14.638,6.453,3.816,3.816,0,0,1-5.293-1.739,5.51,5.51,0,0,1-.321-2.119c0-7.844-.006-15.688.015-23.532a1.152,1.152,0,0,0-.941-1.3A9.327,9.327,0,0,0,30.8,16.37,2.317,2.317,0,0,0,29.46,17q-4.891,4.32-9.8,8.621-5.747,5.04-11.513,10.06a1.763,1.763,0,0,0-.666,1.488c.019,4.692.01,9.384.01,14.076M76.964,26.225v.009H43.76c-.444,0-.894-.033-.892.63q.011,4.222,0,8.445c0,.385.1.551.509.343.385-.2.79-.354,1.186-.528,5.154-2.27,10.321-4.5,16-5.125a8.462,8.462,0,0,1,5.888,1.162,7.613,7.613,0,0,1,3.259,6.3c.155,3.124-1.026,5.876-2.526,8.526a38.1,38.1,0,0,1-3.175,4.64c-.1.125-.289.233-.182.425.081.144.258.091.4.1.168.008.337,0,.505,0q21.655,0,43.31,0a6.2,6.2,0,0,0,1.148-.073,2.159,2.159,0,0,0,1.831-2.106c.021-.336.043-.672.043-1.009q0-10.322,0-20.645c0-1.041-.053-1.088-1.113-1.088H76.964m-.247-13.491v.008h33.418c.938,0,.991-.055.917-.975a31.624,31.624,0,0,1-.017-3.892c.076-1.75-.322-3.294-2.961-3.275-5.725.042-11.45.005-17.175.016q-15.047.03-30.095.078c-5.389.012-10.778.006-16.168.02a2.05,2.05,0,0,0-2.24,2.23c-.01,1.588-.006,3.176,0,4.764,0,1.025.005,1.027,1.049,1.027H76.717m-11.3,59.827a2.687,2.687,0,0,0,2.609-1.7c1.622-3.16,3.219-6.333,4.82-9.5a2.984,2.984,0,0,0,.322-2.225,2.738,2.738,0,0,0-2.31-2A2.664,2.664,0,0,0,68.041,58.7c-1.033,1.978-2.032,3.973-3.042,5.963-.663,1.306-1.357,2.6-1.969,3.927a2.647,2.647,0,0,0,2.388,3.966M61.6,59.071a2.847,2.847,0,0,0-1.483-2.51,2.426,2.426,0,0,0-2.8.42,6.705,6.705,0,0,0-1.622,2.179c-.941,1.811-1.9,3.615-2.773,5.457a33.3,33.3,0,0,0-1.777,3.694,2.582,2.582,0,0,0,.949,2.88,2.665,2.665,0,0,0,2.967.256,3.571,3.571,0,0,0,1.488-1.792q2.257-4.426,4.484-8.867a3.45,3.45,0,0,0,.571-1.717" transform="translate(0.001 0)" fill="url(#linear-gradient)"/>
    <path id="Path_1030" data-name="Path 1030" d="M620.07,289.666c-2.741,0-5.482-.011-8.222.01-.5,0-.7-.143-.7-.646,0-1.707-.021-3.413-.047-5.12,0-.33.12-.5.446-.52.192-.011.385-.012.577-.011q7.9,0,15.8.005c1.036,0,1.051.015,1.057,1.042.008,1.491-.007,2.982.023,4.472.012.577-.151.794-.777.786-2.716-.035-5.433-.015-8.15-.015Z" transform="translate(-522.867 -242.465)" fill="url(#linear-gradient)"/>
  </g>
</svg>
